<svg id="Layer_1" data-name="Layer 1" xmlns="http://www.w3.org/2000/svg" width="200" height="200" viewBox="0 0 200 200"><defs><style>.cls-1{fill:#ff6f00;}.cls-2{fill:none;}</style></defs><title>fivem-logo-freelogovectors.net_</title><path class="cls-1" d="M24.27,187.5l-.88-.87c10.54-29.76,15.78-45.54,16.66-46.42l49-49C87.33,99.1,77.67,130.6,61.94,187.5ZM47,120.12h-.88c1.75-6.11,4.37-10.48,8.74-14,14-14,28-28,42-41.11A19.88,19.88,0,0,1,91.7,75.51ZM66.31,62.41h0C76.79,29.15,82.91,12.5,83.78,12.5h32.38Q97.82,30.94,66.31,62.41Zm-9.66,29.7h-.88c5.3-15.73,7.92-23.59,8.79-24.46L118,15.12c.88,0,2.62,3.55,4.37,11.41Zm46.41-28h-.88c0-2.62-.87-3.49-.87-3.49v-.87c7-7.92,15.78-15.78,24.52-23.65.87.88.87,2.62.87,3.5C118,49.25,110.05,57.11,103.06,64.15ZM175.68,187.5H138.06c-.88,0-3.5-8.79-7.87-24.52-14-50.72-22.76-80.48-24.51-88.34l24.51-24.52h.88c3.49,10.54,18.4,56,45.54,136.51Z"/><rect class="cls-2" width="200" height="200"/></svg>